DBRep_DrawableShape

CASCADE Topology V1, (c) Matra-Datavision
Locations 2
1
              1               0               0               0 
              0               1               0               0 
              0               0               1               0 
2  1 -1 0
Curve2ds 246
1 0 0 0 -1 
1 0 0 0 -1 
1 0 -10.16 1 0 
1 -35.026740294359996 9.095310870676002 0 1 
1 98.353269999999995 0 0 -1 
1 0 0 2.4441574809580003e-16 -1 
1 0 0 1 0 
1 -35.026740294359996 9.095310870676002 0 1 
1 0 -10.16 1 0 
1 -35.026740294359996 9.095310870676002 0 -1 
1 112.83914 0 0 -1 
1 0 0 2.4441574809580003e-16 -1 
1 0 0 1 0 
1 -35.026740294359996 9.095310870676002 0 -1 
1 -35.026740294359996 -103.743829129324 1 0 
1 6.7679195581150167e-15 -10.16 1 0 
2 36.605796705640003 -92.138112129324 0 1 1 -0 11.605717
1 0 -10.16 1 0 
1 48.211513705640002 -92.138112129324 0 1 
1 0 -10.16 1 0 
2 36.605796705640003 -2.5104061293239965 0 1 1 -0 11.605716999999999
1 0 -10.16 1 0 
1 36.605796705640003 9.095310870676002 -1 0 
1 -6.7679195581150167e-15 -10.16 1 0 
1 -23.105163294359997 20.675515274185003 0 -1 
1 0 -10.16 1 0 
1 -23.105163294359997 20.675515274185003 1 0 
1 6.7679195581150167e-15 -10.16 1 0 
2 15.255316951254001 26.557059168915998 0 1 1 -0 5.8815438947369927
1 0 -10.16 1 0 
1 21.136860845991002 26.557059168915998 0 1 
1 0 -10.16 1 0 
2 17.316748389851 103.62846841453599 0 1 1 -0 3.8201124561400093
1 0 -10.16 1 0 
1 17.316748389851 107.448580870676 -1 0 
1 -6.7679195581150167e-15 -10.16 1 0 
1 -35.026740294359996 107.448580870676 1 0 
1 6.7679195581150167e-15 -10.16 1 0 
2 10.809772705639993 -80.335339129323998 1.1162233467952422e-50 1 1 -1.1162233467952422e-50 2.7581572481909999
1 0 -10.16 1 0 
1 11.921576999999999 7.9413655651450919e-15 2.4441574809580003e-16 -1 
1 40.421911684210997 -2.6926402230705659e-14 -2.4441574809580003e-16 -1 
1 0 0 1 0 
1 -35.026740294359996 107.448580870676 1 0 
1 -35.026740294359996 -103.743829129324 1 0 
1 0 0 1 0 
1 -35.015465294359998 -103.82209112932401 1.1162233467952422e-50 1 
1 0 0 1 -5.9211966056914054e-64 
1 -35.015465294359998 107.14381887067599 1 -1.1162233467904716e-50 
1 0 0 1 0 
1 -29.712749294360002 107.14381887067599 -1.1162233467952422e-50 -1 
1 0 0 1 5.9211966056914054e-64 
1 -35.026740294359996 -103.743829129324 1 0 
1 0 0 1 0 
2 36.605796705640003 -92.138112129324 0 1 1 -0 11.605717
1 0 0 1 0 
1 48.211513705640002 -92.138112129324 0 1 
1 0 0 1 0 
2 36.605796705640003 -2.5104061293239965 0 1 1 -0 11.605716999999999
1 0 0 1 0 
1 36.605796705640003 9.095310870676002 -1 0 
1 -0 0 1 0 
1 -23.105163294359997 20.675515274185003 0 -1 
1 0 0 1 0 
1 -23.105163294359997 20.675515274185003 1 0 
1 0 0 1 0 
2 15.255316951254001 26.557059168915998 0 1 1 -0 5.8815438947369927
1 0 0 1 0 
1 7.2469560969760005 20.707580870675997 1 0 
1 7.2469560969769997 -1.249105988313 -1 -6.6613381477510004e-16 
1 14.74190470564 53.724290435335988 7.9363624201334755e-49 -1 
1 1.0667759999999999 -53.724290435340009 1.1914066279330001e-33 -1 
1 17.316748389851 107.448580870676 -1 0 
1 -0 0 1 0 
1 6.8799227056400003 53.724290435335988 -7.9363624201334755e-49 1 
1 0.16099700000000006 -53.724290435340009 1.1914066279330001e-33 1 
1 3.5732514095860006 20.707580870675997 1 0 
1 3.5732514095849996 -1.241652886469 -1 -6.6613381477510004e-16 
1 5.7297727056400003 53.724290435335988 -7.9363624201334755e-49 1 
1 0.16099700000000006 -53.724290435340009 1.1914066279330001e-33 1 
1 17.316748389851 107.448580870676 -1 0 
1 -0 0 1 0 
2 10.80977270564 -28.007689129324 1.8098076849659994e-33 1 1 -1.8098076849659994e-33 5.8508816053110024
1 6.2831853071795862 1.5707963267948939 -1 0 
2 10.80977270564 -80.335339129323998 1.1162233467952422e-50 1 1 -1.1162233467952422e-50 2.7581572481909999
1 0 0 1 0 
1 71.632536999999999 4.77168551338285e-14 2.4441574809580003e-16 -1 
1 3.1415926535900001 0 0 -1 
1 0 0 1 0 
1 2.6626329999999996 -105.40469299999999 -1 -2.2631678028729256e-49 
1 1.570796326795 0 0 -1 
1 0 0 0 -1 
1 -0 0 1 0 
1 17.316748389851 107.448580870676 -1 0 
1 -0 0 -2.4441574809580003e-16 -1 
1 0 0 0 -1 
1 11.586975684211 -0.16099700000000777 6.6613381477510004e-16 1 
1 1.416730113531 -1.402649886469 0 1 
1 10.436825684211 -0.160997000000007 1 -6.6613381477510004e-16 
1 0.26658011353099997 -1.402649886469 1 0 
1 10.436825684211 -0.160997000000007 6.6613381477510004e-16 1 
1 0.26658011353099997 -1.402649886469 0 1 
1 2.5748436842110003 1.0667759999999982 -6.6613381477510004e-16 -1 
1 -0.24799251168700032 -0.18232998831300007 0 -1 
1 2.5748436842109994 -0.13416400000000189 -1 6.6613381477510004e-16 
1 -0.24799251168700032 -1.3832699883130002 -1 0 
1 1.3733096842110013 2.175762999999999 -6.6613381477510004e-16 -1 
1 -1.449526511687 0.9266570116870001 0 -1 
1 89.627706000000003 0 0 -1 
1 1.570796326795 0 0 -1 
1 1.570796326795 0 0 -1 
1 77.071409245619989 0 0 -1 
1 0 0 1 0 
2 17.316748389851 103.62846841453599 0 1 1 -0 3.8201124561400093
1 0 0 0 -1 
1 -0 0 -2.4441574809580003e-16 -1 
1 0 0 0 -1 
1 1.570796326795 0 0 -1 
1 0 0 1 0 
1 21.136860845991002 26.557059168915998 0 1 
1 59.71096 -3.9775489568683408e-14 -2.4441574809580003e-16 -1 
1 11.580204403509001 0 0 -1 
1 0 0 1 0 
2 15.255316951254001 26.557059168915998 0 1 1 -0 5.8815438947369927
1 3.1415926535900001 0 0 -1 
1 38.360480245613999 2.5553213042615719e-14 2.4441574809580003e-16 -1 
7 0 0  1 2 2  3.0371238799440001 -0.3651567  3.0371238799440001 3.9999999999999998e-07 
 -0.3651567 2 3.9999999999999998e-07 2
1 -1.3747254109050004 -1.249105988313 -6.6613381477510004e-16 1 
1 0 -0.13416400000000001 1 0 
2 0.51341224561400001 -80.891521701759999 0 1 1 -0 5.8815438947369927
7 0 0  1 2 2  3.024327292692 -0.3651567  3.024327292692 3.9999999999999998e-07 
 -0.3651567 2 3.9999999954159999e-07 2
1 2.1757629999999999 -86.732672875703003 -1 0 
1 0 0 0 -1 
1 0 0 2.4441574809580003e-16 -1 
1 4.1389114358025836e-13 0 0 -1 
1 6.2831853071795862 0 0 -1 
1 0 0 1 0 
1 1.416730113531 -1.402649886469 0 1 
1 0 -86.741 1 0 
1 1.416730113531 -1.402649886469 0 1 
1 2.3367599999999999 0 0 -1 
1 0 0 0 -1 
1 1.416730113531 0.93411011353100015 -1 0 
1 0 -86.741 1 0 
1 -1.8852698864690001 -0.17487688646900001 0 1 
1 0 -86.741 1 0 
1 0.26658011353099997 -0.17487688646900001 -1 0 
1 0 -86.741 1 0 
1 0.26658011353099997 -1.402649886469 0 1 
1 0 -86.741 1 0 
1 0 0 1 0 
1 0.26658011353099997 -1.402649886469 0 1 
1 1.227773 0 0 -1 
1 0 0 0 -1 
1 0 0 1 0 
1 -0.24799251168700032 -0.18232998831300007 0 -1 
1 0 0 0 -1 
1 2.1541320000000002 0 0 -1 
1 0 -86.741 1 0 
1 -0.24799251168700032 -0.18232998831300007 0 -1 
1 1.9061394883129998 -0.18232998831300007 -1 0 
1 0 -86.741 1 0 
1 1.9061394883129998 -0.18232998831300007 0 1 
1 0 -86.741 1 0 
1 1.9061394883129998 0.9266570116870001 -1 0 
1 0 -86.741 1 0 
1 -1.449526511687 0.9266570116870001 0 -1 
1 0 -86.741 1 0 
1 -0.24799251168700032 -1.3832699883130002 -1 0 
1 0 -86.741 1 0 
1 0 0 -5.9211966056914054e-64 -1 
1 5.3027159999999967 -4.121038177373695e-15 -4.1419558821499957e-17 -1 
1 -4.5392592524247308e-32 -38.100000000000001 1 5.9211966056914054e-64 
1 -2.6513579999999948 105.48295499999999 -9.3197466990469666e-50 -1 
1 210.96590999999998 -2.5134618344191675e-31 -5.9211966056914054e-64 -1 
1 -0 0 4.1419558821499957e-17 -1 
1 0 0 1 5.9211966056914054e-64 
1 -2.6513579999999948 105.48295499999999 -9.3197466990469666e-50 -1 
1 0 0 -4.1419558821499957e-17 -1 
1 210.96590999999998 2.5134618344191675e-31 5.9211966056914054e-64 -1 
1 -2.9609648066752564e-14 -38.100000000000001 1 0 
1 2.6513580000000019 105.48295499999999 -1 1.8164324376435446e-49 
1 0 0 5.9211966056914054e-64 -1 
1 5.3027159999999967 4.121038177373695e-15 4.1419558821499957e-17 -1 
1 4.5392592524247308e-32 -38.100000000000001 1 -5.9211966056914054e-64 
1 2.6513580000000019 -105.482955 9.3197466990469666e-50 1 
1 0 0 1 -5.9211966056914054e-64 
1 2.6513580000000019 -105.482955 9.3197466990469666e-50 1 
1 6.2831853071795862 3.1415926535897931 -1 0 
1 6.2831853071795862 -1.0000010000000001 -1 0 
7 0 0  1 2 2  6.283185307179 1.570796326795  6.283185307179 3.1415926535900001 
 1.570796326795 2 3.1415926535900001 2
7 0 0  1 2 2  0 1.570796326795  0 3.1415926535900001 
 1.570796326795 2 3.1415926535900001 2
1 -2.6513579999999948 -105.482955 1 -1.8164324376435446e-49 
1 -0 0 1 0 
1 15.94343870564 53.724290435335988 7.9363624201334755e-49 -1 
1 2.1757629999999999 -53.724290435340009 1.1914066279330001e-33 -1 
1 -10.170245570679999 -1.241652886469 1 6.6613381477510004e-16 
1 -10.170245570679999 -1.241652886469 1 6.6613381477510004e-16 
1 -2.8228361958979997 -1.249105988313 1 6.6613381477510004e-16 
1 -2.8228361958979997 -1.249105988313 1 6.6613381477510004e-16 
1 1.2015339999999997 0 0 -1 
1 2.3099270000000001 0 0 -1 
1 0 0 1 0 
1 -1.449526511687 0.9266570116870001 0 -1 
1 0 0 0 -1 
1 3.3556659999999998 0 0 -1 
1 1.416730113531 0.93411011353100015 -1 0 
1 0 0 1 0 
1 -1.8852698864690001 -0.17487688646900001 0 1 
1 0 0 1 0 
1 0.26658011353099997 -0.17487688646900001 -1 0 
1 0 0 1 0 
1 3.302 0 0 -1 
1 1.1089870000000002 0 0 -1 
1 0 0 0 -1 
1 2.15185 0 0 -1 
1 1.9061394883129998 -0.18232998831300007 -1 0 
1 0 0 1 0 
1 1.9061394883129998 -0.18232998831300007 0 1 
1 0 0 1 0 
1 1.9061394883129998 0.9266570116870001 -1 0 
1 0 0 1 0 
1 0 0 0 -1 
1 0 0 0 -1 
1 1.1089870000000002 0 0 -1 
1 0 0 0 -1 
1 -2.6513579999999948 -105.482955 1 -1.8164324376435446e-49 
1 2.9609648066752564e-14 -38.100000000000001 1 0 
1 6.2831853071795862 -7.3819990000000004 -1 0 
1 6.2831853071795862 3.1415926535897931 -1 0 
1 -0 0 -0 -1 
1 6.283185307179 0 -0 -1 
1 6.2831853071795862 4.7123889803846923 -1 0 
2 -5.107102662700005e-16 -0.017372000000001719 1.730721613901e-16 1 -1 1.730721613901e-16 5.8508816053110024
7 0 0  1 2 2  6.283185307179 3.1415926535900001  6.283185307179 4.7123889803849996 
 3.1415926535900001 2 4.7123889803849996 2
7 0 0  1 2 2  0 3.1415926535900001  0 4.7123889803849996 
 3.1415926535900001 2 4.7123889803849996 2
2 2.9331555576099973e-16 4.2556963806492603e-62 -2.7486807465217233e-47 1 -1 -2.7486807465217233e-47 6.1346014604219974
1 6.2831853071795862 0 -1 0 
1 4.1389114358025836e-13 0 -0 -1 
1 6.2831853071791723 0 -0 -1 
1 6.2831853071795862 -0.26999900000000032 -1 0 
1 0 0 1 0 
7 0 0  1 2 2  6.2831853071800001 0  6.2831853071800001 1.570796326795 
 0 2 1.570796326795 2
7 0 0  1 2 2  0 0  0 1.570796326795 
 0 2 1.570796326795 2
1 0 1.570796326795 1 0 
2 1.6611064803199925e-16 2.410088622074631e-62 2.0735643309340003e-17 1 -1 2.0735643309340003e-17 5.1346004604219999
Curves 123
1 87.911163000000002 2.54 -45.836512999999997 0 1 -4.2171806667930001e-16 
1 87.911163000000002 12.699999999999999 -45.836512999999997 1 0 0 
1 186.264433 2.54 -45.836512999999997 0 1 -4.2171806667930001e-16 
1 87.911163000000002 2.54 -45.836512999999997 1 0 0 
1 87.911163000000002 12.699999999999999 -45.836512999999997 -1 0 0 
1 -24.927976999999998 2.54 -45.836512999999997 0 1 -4.2171806667930001e-16 
1 87.911163000000002 2.54 -45.836512999999997 -1 0 0 
1 -24.927976999999998 12.699999999999999 -45.836512999999997 0 6.6613381477510004e-16 1 
2 -13.32226 12.699999999999999 25.796023999999999 0 -1 6.6613381477510004e-16 1 0 0 -0 6.6613381477510004e-16 1 11.605717
1 -13.32226 12.699999999999999 37.401741000000001 1 0 0 
2 76.305446000000003 12.699999999999999 25.796023999999999 0 -1 6.6613381477510004e-16 1 0 0 -0 6.6613381477510004e-16 1 11.605717
1 87.911163000000002 12.699999999999999 25.796023999999999 0 -6.6613381477510004e-16 -1 
1 99.491367403509003 12.699999999999999 -33.914935999999997 -1 0 0 
1 99.491367403509003 12.699999999999999 -33.914935999999997 0 6.6613381477510004e-16 1 
2 105.37291129824 12.699999999999999 4.4455442456140002 0 -1 6.6613381477510004e-16 1 0 0 -0 6.6613381477510004e-16 1 5.8815438947369998
1 105.37291129824 12.699999999999999 10.327088140351 1 0 0 
2 182.44432054385999 12.699999999999999 6.5069756842109996 0 -1 6.6613381477510004e-16 1 0 0 -0 6.6613381477510004e-16 1 3.8201124561399999
1 186.264433 12.699999999999999 6.5069756842109996 0 -6.6613381477510004e-16 -1 
1 186.264433 12.699999999999999 -45.836512999999997 0 6.6613381477510004e-16 1 
2 -1.519487 12.699999999999999 -7.8959061511340002e-15 -1.1914066279330001e-33 -1 7.7715611723760001e-16 1 -1.1914066279330001e-33 8.0479847548129997e-49 1.2111047353425232e-49 7.7715611723760001e-16 1 2.7581572481909999
1 186.264433 2.54 -33.914935999999997 0 1 -4.2171806667930001e-16 
1 186.264433 2.54 -45.836512999999997 0 6.6613381477510004e-16 1 
1 -24.927976999999998 2.54 -45.836512999999997 0 6.6613381477510004e-16 1 
1 -25.006239000000001 2.54 -45.825237999999999 1 -1.1914066279330001e-33 8.0479847548129997e-49 
1 185.95967099999999 2.54 -45.825237999999999 1.211104735343e-49 7.7715611723760001e-16 1 
1 185.95967099999999 2.54 -40.522522000000002 -1 1.1914066279330001e-33 -8.0479847548129997e-49 
1 -24.927976999999998 2.54 -45.836512999999997 0 6.6613381477510004e-16 1 
2 -13.32226 2.54 25.796023999999999 0 -1 6.6613381477510004e-16 1 0 0 -0 6.6613381477510004e-16 1 11.605717
1 -13.32226 2.54 37.401741000000001 1 0 0 
2 76.305446000000003 2.54 25.796023999999999 0 -1 6.6613381477510004e-16 1 0 0 -0 6.6613381477510004e-16 1 11.605717
1 87.911163000000002 2.54 25.796023999999999 0 -6.6613381477510004e-16 -1 
1 99.491367403509003 2.54 -33.914935999999997 -1 0 0 
1 99.491367403509003 2.54 -33.914935999999997 0 6.6613381477510004e-16 1 
2 105.37291129824 2.54 4.4455442456140002 0 -1 6.6613381477510004e-16 1 0 0 -0 6.6613381477510004e-16 1 5.8815438947369998
1 99.523432999999997 2.54 -3.5628166086639999 0 6.6613381477510004e-16 1 
1 132.54014256465999 2.54 3.9321320000000002 -1 1.1914066279330001e-33 0 
1 186.264433 2.54 6.5069756842109996 0 -6.6613381477510004e-16 -1 
1 132.54014256465999 2.54 -3.9298500000000001 1 -1.1914066279330001e-33 0 
1 99.523432999999997 2.54 -7.2365212960539997 0 6.6613381477510004e-16 1 
1 132.54014256465999 2.54 -5.0800000000000001 1 -1.1914066279330001e-33 0 
1 186.264433 2.54 6.5069756842109996 0 -6.6613381477510004e-16 -1 
2 50.808163 2.54 0 -1.1914066279330001e-33 -1 6.6613381477510004e-16 1 -1.1914066279329989e-33 1.809807684966e-33 -1.8098076849659994e-33 6.6613381477510004e-16 1 5.8508816053109998
2 -1.519487 2.54 5.1275958839369995e-32 -1.1914066279330001e-33 -1 7.7715611723760001e-16 1 -1.1914066279330001e-33 8.0479847548129997e-49 1.2111047353425232e-49 7.7715611723760001e-16 1 2.7581572481909999
1 -24.927976999999998 2.54 25.796023999999999 0 1 -4.2171806667930001e-16 
1 -24.927976999999998 2.54 -45.836512999999997 0 6.6613381477510004e-16 1 
1 -13.32226 2.54 37.401741000000001 0 1 -4.2171806667930001e-16 
1 186.264433 2.54 6.5069756842109996 0 -6.6613381477510004e-16 -1 
1 186.264433 2.54 6.5069756842109996 0 1 -4.2171806667930001e-16 
1 186.264433 2.7009970000000001 -5.0800000000000001 0 -1 0 
1 186.264433 2.7009970000000001 -3.9298500000000001 0 0 -1 
1 186.264433 2.7009970000000001 -3.9298500000000001 0 -1 0 
1 186.264433 1.4732240000000001 3.9321320000000002 0 1 0 
1 186.264433 2.6741640000000002 3.9321320000000002 0 0 1 
1 186.264433 0.36423699999999998 5.1336659999999998 0 1 0 
1 76.305446000000003 2.54 37.401741000000001 0 1 -4.2171806667930001e-16 
1 182.44432054385999 2.54 10.327088140351 0 1 -4.2171806667930001e-16 
2 182.44432054385999 2.54 6.5069756842109996 0 -1 6.6613381477510004e-16 1 0 0 -0 6.6613381477510004e-16 1 3.8201124561399999
1 87.911163000000002 2.54 25.796023999999999 0 1 -4.2171806667930001e-16 
1 105.37291129824 2.54 10.327088140351 0 1 -4.2171806667930001e-16 
1 105.37291129824 2.54 10.327088140351 1 0 0 
1 87.911163000000002 2.54 -33.914935999999997 0 1 -4.2171806667930001e-16 
2 105.37291129824 2.54 4.4455442456140002 0 -1 6.6613381477510004e-16 1 0 0 -0 6.6613381477510004e-16 1 5.8815438947369998
1 99.491367403509003 2.54 4.4455442456140002 0 1 -4.2171806667930001e-16 
1 99.523432999999997 2.54 5.0588648992180003 0 -1 6.6613381477510004e-16 
2 105.37291129824 2.6741640000000002 4.4455442456140002 0 -1 6.6613381477510004e-16 1 0 0 -0 6.6613381477510004e-16 1 5.8815438947369998
1 99.531760124296994 2.54 5.1336659999999998 0 -1 6.6613381477510004e-16 
1 99.491367403509003 2.54 -33.914935999999997 0 1 -4.2171806667930001e-16 
1 1.2386702481909999 2.54 5.1275958839369995e-32 1.1914066279330001e-33 1 -7.3573655841610006e-16 
1 186.264433 2.7009970000000001 -5.0800000000000001 0 -1 0 
1 99.523432999999997 2.7009970000000001 -5.0800000000000001 0 -1 0 
1 186.264433 0.36423699999999998 -5.0800000000000001 -1 -0 -0 
1 99.523432999999997 0.36423699999999998 -5.0800000000000001 0 0 1 
1 99.523432999999997 1.4732240000000001 -1.778 0 -1 0 
1 99.523432999999997 1.4732240000000001 -3.9298500000000001 0 0 1 
1 99.523432999999997 2.7009970000000001 -3.9298500000000001 0 -1 0 
1 186.264433 2.7009970000000001 -3.9298500000000001 0 -1 0 
1 186.264433 1.4732240000000001 -3.9298500000000001 -1 -0 -0 
1 186.264433 1.4732240000000001 3.9321320000000002 0 1 0 
1 186.264433 1.4732240000000001 3.9321320000000002 -1 -0 -0 
1 99.523432999999997 1.4732240000000001 3.9321320000000002 0 1 0 
1 99.523432999999997 1.4732240000000001 1.778 0 0 1 
1 99.523432999999997 1.4732240000000001 1.778 0 -1 0 
1 99.523432999999997 0.36423699999999998 1.778 0 0 1 
1 99.523432999999997 0.36423699999999998 5.1336659999999998 0 1 0 
1 99.523432999999997 2.6741640000000002 3.9321320000000002 0 0 1 
1 185.95967099999999 2.54 -40.522522000000002 -1.1914066279330001e-33 -1 7.3573655841610006e-16 
1 185.95967099999999 -35.560000000000002 -40.522522000000002 -1 1.1914066279330001e-33 -8.0479847548129997e-49 
1 -25.006239000000001 2.54 -40.522522000000002 -1.1914066279330001e-33 -1 7.3573655841610006e-16 
1 185.95967099999999 2.54 -40.522522000000002 -1 1.1914066279330001e-33 -8.0479847548129997e-49 
1 185.95967099999999 2.54 -45.825237999999999 -1.1914066279330001e-33 -1 7.3573655841610006e-16 
1 185.95967099999999 -35.560000000000002 -45.825237999999999 1.211104735343e-49 7.7715611723760001e-16 1 
1 -25.006239000000001 2.54 -45.825237999999999 -1.1914066279330001e-33 -1 7.3573655841610006e-16 
1 -25.006239000000001 -35.560000000000002 -45.825237999999999 1 -1.1914066279330001e-33 8.0479847548129997e-49 
1 -25.006239000000001 2.54 -45.825237999999999 1 -1.1914066279330001e-33 8.0479847548129997e-49 
2 50.808163 1.5399989999999999 6.6613448090890002e-16 -1.1914066279330001e-33 -1 6.6613381477510004e-16 1 -1.1914066279329989e-33 1.809807684966e-33 -1.8098076849659994e-33 6.6613381477510004e-16 1 4.8508806053109996
2 56.659044605311003 1.5399989999999999 6.6613448090890002e-16 -1.809807684966e-33 6.6613381477510004e-16 1 1 -1.1914066279330001e-33 1.8098076849660007e-33 1.1914066279330013e-33 1 -6.6613381477510004e-16 1.0000009999999999
1 -25.006239000000001 2.54 -40.522522000000002 -1.211104735343e-49 -7.7715611723760001e-16 -1 
1 132.54014256465999 2.54 5.1336659999999998 -1 1.1914066279330001e-33 0 
1 186.264433 2.54 6.5069756842109996 0 -6.6613381477510004e-16 -1 
1 186.264433 2.54 6.5069756842109996 0 -6.6613381477510004e-16 -1 
1 186.264433 2.6741640000000002 5.1336659999999998 -1 -0 -0 
1 186.264433 0.36423699999999998 5.1336659999999998 0 1 0 
1 186.264433 0.36423699999999998 5.1336659999999998 -1 -0 -0 
1 186.264433 0.36423699999999998 -5.0800000000000001 0 0 1 
1 186.264433 1.4732240000000001 -1.778 0 -1 0 
1 186.264433 1.4732240000000001 -3.9298500000000001 0 0 1 
1 186.264433 0.36423699999999998 -1.778 -1 -0 -0 
1 186.264433 1.4732240000000001 -1.778 -1 -0 -0 
1 186.264433 1.4732240000000001 1.778 0 0 1 
1 186.264433 1.4732240000000001 1.778 0 -1 0 
1 186.264433 0.36423699999999998 1.778 0 0 1 
1 186.264433 1.4732240000000001 1.778 -1 -0 -0 
1 186.264433 0.36423699999999998 1.778 -1 -0 -0 
1 -25.006239000000001 -35.560000000000002 -40.522522000000002 -1.211104735343e-49 -7.7715611723760001e-16 -1 
2 50.808163 -4.8419990000000004 6.1705974846680002e-15 1.7357305370469999e-31 -1 8.3589790308399996e-16 1 2.8902396916499783e-32 -1.730721613901e-16 1.730721613901e-16 8.3589790308399996e-16 1 4.8508806053109996
1 55.659043605310998 2.54 5.1275958839369995e-32 -1.1914066279330001e-33 -1 7.3573655841610006e-16 
2 50.808163 -5.8419999999999996 7.0064962236499999e-15 1.7357305370469999e-31 -1 8.3589790308399996e-16 1 2.8902396916499783e-32 -1.730721613901e-16 1.730721613901e-16 8.3589790308399996e-16 1 5.8508816053109998
2 56.659044605311003 -4.8419990000000004 5.1579727591990001e-15 1.730721613901e-16 8.3589790308399996e-16 1 1 2.8902396916429997e-32 -1.730721613901e-16 -1.7357305370463021e-31 1 -8.3589790308399996e-16 1.0000009999999999
2 50.825535000000002 -5.8419999999999996 6.2024704016189997e-15 1.5947873854640001e-31 -1 7.7715611723760001e-16 1 1.5947873854640001e-31 -1.058211356722e-46 -1.8118741558470605e-47 7.7715611723760001e-16 1 6.1346014604220001
1 56.960136460422 -5.8419999999999996 6.2024704016189997e-15 1.5947873854640001e-31 -1 7.3573655841610006e-16 
2 50.825535000000002 -6.111999 6.4281619995539997e-15 1.7357305370469999e-31 -1 8.3589790308399996e-16 1 1.5624017294332491e-31 -2.0735643309340003e-17 2.0735643309340003e-17 8.3589790308399996e-16 1 6.1346014604220001
2 55.960135460422002 -6.111999 6.3216927558710001e-15 -2.0735643309340003e-17 -8.3589790308399996e-16 -1 1 1.562401729433e-31 -2.0735643309340003e-17 1.7357305370467507e-31 -1 8.3589790308399996e-16 1.0000009999999999
2 50.825535000000002 -7.1120000000000001 7.2640607385360002e-15 1.7357305370469999e-31 -1 8.3589790308399996e-16 1 1.5624017294332491e-31 -2.0735643309340003e-17 2.0735643309340003e-17 8.3589790308399996e-16 1 5.1346004604219999
Polygon3D 0
PolygonOnTriangulations 0
Surfaces 48
1 87.911163000000002 2.54 -45.836512999999997 0 -4.2171806667930001e-16 -1 1 0 0 0 -1 4.2171806667930001e-16 
1 87.911163000000002 2.54 -45.836512999999997 0 4.2171806667930001e-16 1 -1 0 0 0 -1 4.2171806667930001e-16 
1 78.815852129324 12.699999999999999 -10.80977270564 1.1914066279330001e-33 1 -6.6613381477510004e-16 0 6.6613381477510004e-16 1 1 -1.1914066279330001e-33 7.9363624201334755e-49 
1 186.264433 2.54 -45.836512999999997 1 0 0 -0 6.6613381477510004e-16 1 0 -1 6.6613381477510004e-16 
1 78.815852129324 2.54 -10.80977270564 1.1914066279330001e-33 1 -6.6613381477510004e-16 0 6.6613381477510004e-16 1 1 -1.1914066279330001e-33 7.9363624201334755e-49 
1 -24.927976999999998 2.54 -45.836512999999997 1 0 0 -0 6.6613381477510004e-16 1 0 -1 6.6613381477510004e-16 
2 -13.32226 2.54 25.796023999999999 0 -1 6.6613381477510004e-16 1 0 0 -0 6.6613381477510004e-16 1 11.605717
1 -13.32226 2.54 37.401741000000001 0 -4.2171806667930001e-16 -1 1 0 0 0 -1 4.2171806667930001e-16 
2 76.305446000000003 2.54 25.796023999999999 0 -1 6.6613381477510004e-16 1 0 0 -0 6.6613381477510004e-16 1 11.605717
1 87.911163000000002 2.54 25.796023999999999 -1 0 0 -0 -6.6613381477510004e-16 -1 0 -1 6.6613381477510004e-16 
1 99.491367403509003 2.54 -33.914935999999997 0 4.2171806667930001e-16 1 -1 0 0 0 -1 4.2171806667930001e-16 
1 99.491367403509003 2.54 -33.914935999999997 1 0 0 -0 6.6613381477510004e-16 1 0 -1 6.6613381477510004e-16 
2 105.37291129824 2.54 4.4455442456140002 0 -1 6.6613381477510004e-16 1 0 0 -0 6.6613381477510004e-16 1 5.8815438947369998
1 105.37291129824 2.54 10.327088140351 0 -4.2171806667930001e-16 -1 1 0 0 0 -1 4.2171806667930001e-16 
2 182.44432054385999 2.54 6.5069756842109996 0 -1 6.6613381477510004e-16 1 0 0 -0 6.6613381477510004e-16 1 3.8201124561399999
1 186.264433 2.54 6.5069756842109996 -1 0 0 -0 -6.6613381477510004e-16 -1 0 -1 6.6613381477510004e-16 
2 -1.519487 2.54 5.1275958839369995e-32 -1.1914066279330001e-33 -1 7.7715611723760001e-16 1 -1.1914066279330001e-33 8.0479847548129997e-49 1.2111047353425232e-49 7.7715611723760001e-16 1 2.7581572481909999
1 -25.006239000000001 2.54 -45.825237999999999 7.1762936628250001e-50 7.3573655841610006e-16 1 1 -1.1914066279330001e-33 8.047984754813065e-49 1.1914066279330001e-33 1 -7.3573655841610006e-16 
1 185.95967099999999 2.54 -45.825237999999999 -1 1.1914066279330001e-33 -8.0479847548129997e-49 1.2111047353425236e-49 7.7715611723760001e-16 1 1.1914066279330001e-33 1 -7.7715611723760001e-16 
1 185.95967099999999 2.54 -40.522522000000002 -7.1762936628250001e-50 -7.3573655841610006e-16 -1 -1 1.1914066279330001e-33 -8.047984754813065e-49 1.1914066279330001e-33 1 -7.3573655841610006e-16 
1 99.523432999999997 1.290894011687 3.6841394883129999 -1 -0 -0 0 0 -1 0 -1 0 
1 186.264433 1.4732240000000001 3.9321320000000002 0 0 -1 0 1 0 1 -0 0 
1 186.264433 2.7009970000000001 -3.9298500000000001 0 0 1 0 -1 0 1 0 -0 
1 99.523432999999997 1.2983471135310001 -3.6632698864690001 -1 -0 -0 0 0 -1 0 -1 0 
1 186.264433 2.7009970000000001 -5.0800000000000001 0 0 1 0 -1 0 1 0 -0 
5 50.808163 1.5399989999999999 6.6613448090890002e-16 1.1914066279330001e-33 1 -6.6613381477510004e-16 1 -1.1914066279329989e-33 1.809807684966e-33 1.8098076849659994e-33 -6.6613381477510004e-16 -1 5.8508816053109998 1.0000009999999999
1 80.476715999999996 2.54 -43.173879999999997 2.5837110576430001e-33 -1 7.5372750278360001e-16 0 -7.5372750278360001e-16 -1 1 2.5837110576430001e-33 -1.9474140833916325e-48 
1 78.815852129324 2.54 -10.80977270564 1.1914066279330001e-33 1 -6.6613381477510004e-16 0 6.6613381477510004e-16 1 1 -1.1914066279330001e-33 7.9363624201334755e-49 
1 186.264433 1.2983471135310001 -3.6632698864690001 -1 -0 -0 0 0 -1 0 -1 0 
1 186.264433 1.290894011687 3.6841394883129999 -1 -0 -0 0 0 -1 0 -1 0 
1 186.264433 2.6741640000000002 3.9321320000000002 0 1 0 0 -0 1 1 0 -0 
1 186.264433 0.36423699999999998 5.1336659999999998 0 0 -1 0 1 0 1 -0 0 
1 186.264433 1.2983471135310001 -3.6632698864690001 -1 -0 -0 0 0 -1 0 -1 0 
1 186.264433 0.36423699999999998 -5.0800000000000001 0 1 0 0 -0 1 1 0 -0 
1 186.264433 1.4732240000000001 -1.778 0 0 1 0 -1 0 1 0 -0 
1 186.264433 1.4732240000000001 -3.9298500000000001 0 1 0 0 -0 1 1 0 -0 
1 186.264433 1.290894011687 3.6841394883129999 -1 -0 -0 0 0 -1 0 -1 0 
1 186.264433 1.4732240000000001 1.778 0 1 0 0 -0 1 1 0 -0 
1 186.264433 1.4732240000000001 1.778 0 0 1 0 -1 0 1 0 -0 
1 186.264433 0.36423699999999998 1.778 0 1 0 0 -0 1 1 0 -0 
1 80.476715999999996 -35.560000000000002 -43.173879999999997 2.5837110576430001e-33 -1 7.5372750278360001e-16 0 -7.5372750278360001e-16 -1 1 2.5837110576430001e-33 -1.9474140833916325e-48 
1 -25.006239000000001 2.54 -40.522522000000002 1 -1.1914066279330001e-33 8.0479847548129997e-49 -1.2111047353425236e-49 -7.7715611723760001e-16 -1 1.1914066279330001e-33 1 -7.7715611723760001e-16 
2 50.808163 2.54 5.1275958839369995e-32 1.1914066279330001e-33 1 -7.7715611723760001e-16 1 -1.1914066279330001e-33 8.0479847548129997e-49 -1.2111047353425232e-49 -7.7715611723760001e-16 -1 4.8508806053109996
5 50.808163 -4.8419990000000004 6.1705974846680002e-15 -1.7357305370469999e-31 1 -8.3589790308399996e-16 1 2.8902396916499783e-32 -1.730721613901e-16 -1.730721613901e-16 -8.3589790308399996e-16 -1 5.8508816053109998 1.0000009999999999
1 50.825535000000002 -5.8419999999999996 6.4957859573799994e-15 1.7357305370469999e-31 -1 8.3589790308399996e-16 0 -8.3589790308399996e-16 -1 1 1.7357305370469999e-31 -1.4508935162364522e-46 
2 50.825535000000002 -5.8419999999999996 6.2024704016189997e-15 -1.5947873854640001e-31 1 -7.7715611723760001e-16 1 1.5947873854640001e-31 -1.058211356722e-46 1.8118741558470605e-47 -7.7715611723760001e-16 -1 6.1346014604220001
5 50.825535000000002 -6.111999 6.4281619995539997e-15 1.7357305370469999e-31 -1 8.3589790308399996e-16 1 1.5624017294332491e-31 -2.0735643309340003e-17 2.0735643309340003e-17 8.3589790308399996e-16 1 5.1346004604219999 1.0000009999999999
1 50.825535000000002 -7.1120000000000001 7.4301713865679994e-15 1.7357305370469999e-31 -1 8.3589790308399996e-16 0 -8.3589790308399996e-16 -1 1 1.7357305370469999e-31 -1.4508935162364522e-46 
Triangulations 0

TShapes 304
Ve
1.0001000025e-07
87.911163 2.54 -45.836513
0 0

0101101
*
Ve
1.0001000025e-07
87.911163 12.7 -45.836513
0 0

0101101
*
Ed
 1.0001000025e-07 1 1 0
1  1 0 0 10.16
2  1 1 0 0 10.16
2  2 2 0 0 10.16
4 G1 1 0 2 0
0

0101000
+304 2 -303 2 *
Ve
1.0001000025e-07
186.264433 12.7 -45.836513
0 0

0101101
*
Ed
 1.0001000025e-07 1 1 0
1  2 0 0 98.35327
2  3 1 0 0 98.35327
2  4 3 0 0 98.35327
0

0101000
+303 2 -301 2 *
Ve
1.0001000025e-07
186.264433 2.54 -45.836513
0 0

0101101
*
Ed
 1.0001000025e-07 1 1 0
1  3 0 0 10.16
2  5 1 0 0 10.16
2  6 4 0 0 10.16
0

0101000
+299 2 -301 2 *
Ed
 1.0001000025e-07 1 1 0
1  4 0 0 98.35327
2  7 1 0 0 98.35327
2  8 5 0 0 98.35327
0

0101000
+304 2 -299 2 *
Wi

0101100
+302 0 +300 0 -298 0 -297 0 *
Fa
0  1e-07 1 0

0101000
+296 0 *
Ve
1.0001000025e-07
-24.927977 12.7 -45.836513
0 0

0101101
*
Ed
 1.0001000025e-07 1 1 0
1  5 0 0 112.83914
2  9 2 0 0 112.83914
2  10 3 0 0 112.83914
0

0101000
+303 2 -294 2 *
Ve
1.0001000025e-07
-24.927977 2.54 -45.836513
0 0

0101101
*
Ed
 1.0001000025e-07 1 1 0
1  6 0 0 10.16
2  11 2 0 0 10.16
2  12 6 0 0 10.16
0

0101000
+292 2 -294 2 *
Ed
 1.0001000025e-07 1 1 0
1  7 0 0 112.83914
2  13 2 0 0 112.83914
2  14 5 0 0 112.83914
0

0101000
+304 2 -292 2 *
Wi

0101100
+302 0 +293 0 -291 0 -290 0 *
Fa
0  1e-07 2 0

0101000
+289 0 *
Ve
1.0001000025e-07
-24.927977 12.7 25.796024
0 0

0101101
*
Ed
 1.0001000025e-07 1 1 0
1  8 0 0 71.632537
2  15 3 0 0 71.632537
2  16 6 0 0 71.632537
0

0101000
+294 2 -287 2 *
Ve
1.0001000025e-07
-13.32226 12.7 37.401741
0 0

0101101
*
Ed
 1.00005e-07 1 1 0
1  9 0 1.5707963267949 3.14159265358979
2  17 3 0 1.5707963267949 3.14159265358979
2  18 7 0 1.5707963267949 3.14159265358979
0

0101000
+285 2 -287 2 *
Ve
1.0001000025e-07
76.305446 12.7 37.401741
0 0

0101101
*
Ed
 1.0001000025e-07 1 1 0
1  10 0 0 89.627706
2  19 3 0 0 89.627706
2  20 8 0 0 89.627706
0

0101000
+285 2 -283 2 *
Ve
1.0001000025e-07
87.911163 12.7 25.796024
0 0

0101101
*
Ed
 1.00005e-07 1 1 0
1  11 0 0 1.5707963267949
2  21 3 0 0 1.5707963267949
2  22 9 0 0 1.5707963267949
0

0101000
+281 2 -283 2 *
Ve
1.0001000025e-07
87.911163 12.7 -33.914936
0 0

0101101
*
Ed
 1.0001000025e-07 1 1 0
1  12 0 0 59.71096
2  23 3 0 0 59.71096
2  24 10 0 0 59.71096
0

0101000
+281 2 -279 2 *
Ve
1.0001000025e-07
99.491367403509 12.7 -33.914936
0 0

0101101
*
Ed
 1.0001000025e-07 1 1 0
1  13 0 0 11.580204403509
2  25 3 0 0 11.580204403509
2  26 11 0 0 11.580204403509
0

0101000
+277 2 -279 2 *
Ve
1.0001000025e-07
99.491367403509 12.7 4.445544245614
0 0

0101101
*
Ed
 1.0001000025e-07 1 1 0
1  14 0 0 38.360480245614
2  27 3 0 0 38.360480245614
2  28 12 0 0 38.360480245614
0

0101000
+277 2 -275 2 *
Ve
1.0001000025e-07
105.37291129824 12.7 10.327088140351
0 0

0101101
*
Ed
 1.00005e-07 1 1 0
1  15 0 1.5707963267949 3.14159265358979
2  29 3 0 1.5707963267949 3.14159265358979
2  30 13 0 1.5707963267949 3.14159265358979
0

0101000
+273 2 -275 2 *
Ve
1.0001000025e-07
182.44432054386 12.7 10.327088140351
0 0

0101101
*
Ed
 1.0001000025e-07 1 1 0
1  16 0 0 77.07140924562
2  31 3 0 0 77.07140924562
2  32 14 0 0 77.07140924562
0

0101000
+273 2 -271 2 *
Ve
1.0001000025e-07
186.264433 12.7 6.506975684211
0 0

0101101
*
Ed
 1.00005e-07 1 1 0
1  17 0 0 1.5707963267949
2  33 3 0 0 1.5707963267949
2  34 15 0 0 1.5707963267949
0

0101000
+269 2 -271 2 *
Ve
1.0001000025e-07
186.264433 12.7 -33.914936
0 0

0101101
*
Ed
 1.0001000025e-07 1 1 0
1  18 0 0 40.421911684211
2  35 3 0 0 40.421911684211
2  36 16 0 0 40.421911684211
0

0101000
+269 2 -267 2 *
Ed
 1.0001000025e-07 1 1 0
1  19 0 0 11.921577
2  37 3 0 0 11.921577
2  38 4 0 0 11.921577
0

0101000
+301 2 -267 2 *
Wi

0101100
+293 0 +286 0 -284 0 +282 0 -280 0 +278 0 -276 0 +274 0 -272 0 +270 0 
-268 0 +266 0 -265 0 -300 0 *
Ve
1.00005e-07
1.238670248191 12.7 -7.475083433507e-15
0 0

0101101
*
Ed
 1.00005e-07 1 1 0
1  20 0 0 6.28318530717959
2  39 3 0 0 6.28318530717959
2  40 17 0 0 6.28318530717959
0

0101000
+263 2 -263 2 *
Wi

0101100
+262 0 *
Fa
0  1e-07 3 0

0101000
+264 0 +261 0 *
Ve
1.0001000025e-07
186.264433 2.54 -33.914936
0 0

0101101
*
Ed
 1.0001000025e-07 1 1 0
1  21 0 0 10.16
2  41 4 0 0 10.16
2  42 16 0 0 10.16
4 G1 4 0 16 0
0

0101000
+259 2 -267 2 *
Ed
 1.0001000025e-07 1 1 0
1  22 0 0 11.921577
2  43 4 0 0 11.921577
2  44 5 0 0 11.921577
0

0101000
+299 2 -259 2 *
Wi

0101100
+298 0 +265 0 -258 0 -257 0 *
Fa
0  1e-07 4 0

0101000
+256 0 *
Ve
1.0001000025e-07
-24.927977 2.54 -45.825238
0 0

0101101
*
Ed
 1.0001000025e-07 1 1 0
1  23 0 0 0.0112749999999977
2  45 5 0 0 0.0112749999999977
2  46 6 0 0 0.0112749999999977
0

0101000
+292 2 -254 2 *
Ve
1.0001000025e-07
185.959671 2.54 -45.825238
0 0

0101101
*
Ed
 1.0001000025e-07 1 1 0
1  24 0 0.0782620000000023 210.96591
2  47 5 0 0.0782620000000023 210.96591
2  48 18 0 0.0782620000000023 210.96591
0

0101000
+254 2 -252 2 *
Ve
1.0001000025e-07
185.959671 2.54 -40.522522
0 0

0101101
*
Ed
 1.0001000025e-07 1 1 0
1  25 0 0 5.302716
2  49 5 0 0 5.302716
2  50 19 0 0 5.302716
0

0101000
+252 2 -250 2 *
Ve
1.0001000025e-07
-24.927977 2.54 -40.522522
0 0

0101101
*
Ed
 1.0001000025e-07 1 1 0
1  26 0 0 210.887648
2  51 5 0 0 210.887648
2  52 20 0 0 210.887648
0

0101000
+250 2 -248 2 *
Ve
1.0001000025e-07
-24.927977 2.54 25.796024
0 0

0101101
*
Ed
 1.0001000025e-07 1 1 0
1  27 0 5.31399099999999 71.632537
2  53 5 0 5.31399099999999 71.632537
2  54 6 0 5.31399099999999 71.632537
0

0101000
+248 2 -246 2 *
Ve
1.0001000025e-07
-13.32226 2.54 37.401741
0 0

0101101
*
Ed
 1.00005e-07 1 1 0
1  28 0 1.5707963267949 3.14159265358979
2  55 5 0 1.5707963267949 3.14159265358979
2  56 7 0 1.5707963267949 3.14159265358979
0

0101000
+244 2 -246 2 *
Ve
1.0001000025e-07
76.305446 2.54 37.401741
0 0

0101101
*
Ed
 1.0001000025e-07 1 1 0
1  29 0 0 89.627706
2  57 5 0 0 89.627706
2  58 8 0 0 89.627706
0

0101000
+244 2 -242 2 *
Ve
1.0001000025e-07
87.911163 2.54 25.796024
0 0

0101101
*
Ed
 1.00005e-07 1 1 0
1  30 0 0 1.5707963267949
2  59 5 0 0 1.5707963267949
2  60 9 0 0 1.5707963267949
0

0101000
+240 2 -242 2 *
Ve
1.0001000025e-07
87.911163 2.54 -33.914936
0 0

0101101
*
Ed
 1.0001000025e-07 1 1 0
1  31 0 0 59.71096
2  61 5 0 0 59.71096
2  62 10 0 0 59.71096
0

0101000
+240 2 -238 2 *
Ve
1.0001000025e-07
99.491367403509 2.54 -33.914936
0 0

0101101
*
Ed
 1.0001000025e-07 1 1 0
1  32 0 0 11.580204403509
2  63 5 0 0 11.580204403509
2  64 11 0 0 11.580204403509
0

0101000
+236 2 -238 2 *
Ve
1.0001000025e-07
99.491367403509 2.54 4.445544245614
0 0

0101101
*
Ed
 1.0001000025e-07 1 1 0
1  33 0 0 38.360480245614
2  65 5 0 0 38.360480245614
2  66 12 0 0 38.360480245614
0

0101000
+236 2 -234 2 *
Ve
1.0001000025e-07
99.523433 2.54 5.058864899218
0 0

0101101
*
Ed
 1.00005e-07 1 1 0
1  34 0 3.03712387994433 3.14159265358979
2  67 5 0 3.03712387994433 3.14159265358979
2  68 13 0 3.03712387994433 3.14159265358979
0

0101000
+232 2 -234 2 *
Ve
1.0001000025e-07
99.523433 2.54 3.932132
0 0

0101101
*
Ed
 1.0001000025e-07 1 1 0
1  35 0 7.494948608664 8.621681507882
2  69 5 0 7.494948608664 8.621681507882
2  70 21 0 7.494948608664 8.621681507882
0

0101000
+230 2 -232 2 *
Ve
1.0001000025e-07
186.264433 2.54 3.932132
0 0

0101101
*
Ed
 1.0001000025e-07 1 1 0
1  36 0 -53.72429043534 33.01670956466
2  71 5 0 -53.72429043534 33.01670956466
2  72 22 0 -53.72429043534 33.01670956466
0

0101000
+228 2 -230 2 *
Ve
1.0001000025e-07
186.264433 2.54 -3.92985
0 0

0101101
*
Ed
 1.0001000025e-07 1 1 0
1  37 0 2.574843684211 10.436825684211
2  73 5 0 2.574843684211 10.436825684211
2  74 16 0 2.574843684211 10.436825684211
0

0101000
+228 2 -226 2 *
Ve
1.0001000025e-07
99.523433 2.54 -3.92985
0 0

0101101
*
Ed
 1.0001000025e-07 1 1 0
1  38 0 -33.01670956466 53.72429043534
2  75 5 0 -33.01670956466 53.72429043534
2  76 23 0 -33.01670956466 53.72429043534
0

0101000
+224 2 -226 2 *
Ve
1.0001000025e-07
99.523433 2.54 -5.08
0 0

0101101
*
Ed
 1.0001000025e-07 1 1 0
1  39 0 2.156521296054 3.306671296054
2  77 5 0 2.156521296054 3.306671296054
2  78 24 0 2.156521296054 3.306671296054
0

0101000
+222 2 -224 2 *
Ve
1.0001000025e-07
186.264433 2.54 -5.08
0 0

0101101
*
Ed
 1.0001000025e-07 1 1 0
1  40 0 -33.01670956466 53.72429043534
2  79 5 0 -33.01670956466 53.72429043534
2  80 25 0 -33.01670956466 53.72429043534
0

0101000
+222 2 -220 2 *
Ed
 1.0001000025e-07 1 1 0
1  41 0 11.586975684211 40.421911684211
2  81 5 0 11.586975684211 40.421911684211
2  82 16 0 11.586975684211 40.421911684211
0

0101000
+220 2 -259 2 *
Wi

0101100
-297 0 +290 0 +253 0 +251 0 +249 0 +247 0 +245 0 -243 0 +241 0 -239 0 
+237 0 -235 0 +233 0 -231 0 -229 0 -227 0 +225 0 -223 0 -221 0 +219 0 
+218 0 -257 0 *
Ve
1.00005e-07
56.659044605311 2.54 9.860761315263e-32
0 0

0101101
*
Ed
 1.00005e-07 1 1 0
1  42 0 0 6.28318530717959
2  83 5 0 0 6.28318530717959
2  84 26 0 0 6.28318530717959
4 G1 5 0 26 0
0

0101000
+216 2 -216 2 *
Wi

0101100
+215 0 *
Ve
1.00005e-07
1.238670248191 2.54 5.127595883937e-32
0 0

0101101
*
Ed
 1.00005e-07 1 1 0
1  43 0 0 6.28318530717959
2  85 5 0 0 6.28318530717959
2  86 17 0 0 6.28318530717959
0

0101000
+213 2 -213 2 *
Wi

0101100
+212 0 *
Fa
0  1e-07 5 0

0101000
+217 0 +214 0 +211 0 *
Ed
 1.00005e-07 1 1 0
1  44 0 0 10.16
2  87 6 0 0 10.16
2  88 7 0 0 10.16
4 G1 6 0 7 0
0

0101000
+246 2 -287 2 *
Ed
 1.0001000025e-07 1 1 0
1  45 0 0.0112749999999977 5.31399099999999
2  89 6 0 0.0112749999999977 5.31399099999999
2  90 27 0 0.0112749999999977 5.31399099999999
0

0101000
+254 2 -248 2 *
Wi

0101100
+291 0 +286 0 -209 0 -245 0 -208 0 -253 0 *
Fa
0  1e-07 6 0

0101000
+207 0 *
Ed
 1.00005e-07 1 1 0
1  46 0 0 10.16
2  91 7 0 0 10.16
2  92 8 0 0 10.16
4 G1 7 0 8 0
0

0101000
+244 2 -285 2 *
Wi

0101100
+205 0 +284 0 -209 0 -243 0 *
Fa
0  1e-07 7 0

0101000
+204 0 *
Ve
1.0001000025e-07
186.264433 2.54 6.506975684211
0 0

0101101
*
Ve
1.0001000025e-07
186.264433 2.54 5.133666
0 0

0101101
*
Ed
 1.0001000025e-07 1 1 0
1  47 0 0 1.373309684211
2  93 16 0 0 1.373309684211
2  94 28 0 0 1.373309684211
0

0101000
+202 2 -201 2 *
Ed
 1.00005e-07 1 1 0
1  48 0 0 10.16
2  95 16 0 0 10.16
2  96 15 0 0 10.16
4 G1 16 0 15 0
0

0101000
+202 2 -269 2 *
Ve
1.0001000025e-07
186.264433 2.700997 -5.08
0 0

0101101
*
Ed
 1.0001000025e-07 1 1 0
1  49 0 0 0.160997
2  97 16 0 0 0.160997
2  98 29 0 0 0.160997
4 G1 16 0 29 0
0

0101000
+198 2 -220 2 *
Ve
1.0001000025e-07
186.264433 2.700997 -3.92985
0 0

0101101
*
Ed
 1.0001000025e-07 1 1 0
1  50 0 0 1.15015
2  99 16 0 0 1.15015
2  100 29 0 0 1.15015
4 G1 16 0 29 0
0

0101000
+196 2 -198 2 *
Ed
 1.0001000025e-07 1 1 0
1  51 0 0 0.160997
2  101 16 0 0 0.160997
2  102 29 0 0 0.160997
4 G1 16 0 29 0
0

0101000
+196 2 -226 2 *
Ve
1.0001000025e-07
186.264433 2.674164 3.932132
0 0

0101101
*
Ed
 1.0001000025e-07 1 1 0
1  52 0 1.066776 1.20094
2  103 16 0 1.066776 1.20094
2  104 30 0 1.066776 1.20094
4 G1 16 0 30 0
0

0101000
+228 2 -193 2 *
Ve
1.0001000025e-07
186.264433 2.674164 5.133666
0 0

0101101
*
Ed
 1.0001000025e-07 1 1 0
1  53 0 0 1.201534
2  105 16 0 0 1.201534
2  106 30 0 0 1.201534
4 G1 16 0 30 0
0

0101000
+193 2 -191 2 *
Ed
 1.0001000025e-07 1 1 0
1  54 0 2.175763 2.309927
2  107 16 0 2.175763 2.309927
2  108 30 0 2.175763 2.309927
4 G1 16 0 30 0
0

0101000
+201 2 -191 2 *
Wi

0101100
-200 0 +199 0 +266 0 -258 0 -218 0 -197 0 -195 0 +194 0 -225 0 +192 0 
+190 0 -189 0 *
Fa
0  1e-07 16 0

0101000
+188 0 *
Ed
 1.00005e-07 1 1 0
1  55 0 0 10.16
2  109 8 0 0 10.16
2  110 9 0 0 10.16
4 G1 8 0 9 0
0

0101000
+242 2 -283 2 *
Wi

0101100
+205 0 +282 0 -186 0 -241 0 *
Fa
0  1e-07 8 0

0101000
+185 0 *
Ve
1.0001000025e-07
182.44432054386 2.54 10.327088140351
0 0

0101101
*
Ed
 1.00005e-07 1 1 0
1  56 0 0 10.16
2  111 15 0 0 10.16
2  112 14 0 0 10.16
4 G1 15 0 14 0
0

0101000
+183 2 -271 2 *
Ed
 1.00005e-07 1 1 0
1  57 0 0 1.5707963267949
2  113 15 0 0 1.5707963267949
2  114 28 0 0 1.5707963267949
0

0101000
+202 2 -183 2 *
Wi

0101100
+199 0 +268 0 -182 0 -181 0 *
Fa
0  1e-07 15 0

0101000
+180 0 *
Ed
 1.00005e-07 1 1 0
1  58 0 0 10.16
2  115 9 0 0 10.16
2  116 10 0 0 10.16
4 G1 9 0 10 0
0

0101000
+240 2 -281 2 *
Wi

0101100
+178 0 +280 0 -186 0 -239 0 *
Fa
0  1e-07 9 0

0101000
+177 0 *
Ve
1.0001000025e-07
105.37291129824 2.54 10.327088140351
0 0

0101101
*
Ed
 1.00005e-07 1 1 0
1  59 0 0 10.16
2  117 14 0 0 10.16
2  118 13 0 0 10.16
4 G1 14 0 13 0
0

0101000
+175 2 -273 2 *
Ed
 1.0001000025e-07 1 1 0
1  60 0 0 77.07140924562
2  119 14 0 0 77.07140924562
2  120 28 0 0 77.07140924562
0

0101000
+175 2 -183 2 *
Wi

0101100
+174 0 +270 0 -182 0 -173 0 *
Fa
0  1e-07 14 0

0101000
+172 0 *
Ed
 1.0001000025e-07 1 1 0
1  61 0 0 10.16
2  121 10 0 0 10.16
2  122 11 0 0 10.16
0

0101000
+238 2 -279 2 *
Wi

0101100
+178 0 +278 0 -170 0 -237 0 *
Fa
0  1e-07 10 0

0101000
+169 0 *
Ve
1.0001000025e-07
99.531760124297 2.54 5.133666
0 0

0101101
*
Ed
 1.00005e-07 1 1 0
1  62 0 1.5707963267949 3.02432729269171
2  123 13 0 1.5707963267949 3.02432729269171
2  124 28 0 1.5707963267949 3.02432729269171
0

0101000
+175 2 -167 2 *
Ed
 1.00005e-07 1 1 0
1  63 0 0 10.16
2  125 13 0 0 10.16
2  126 12 0 0 10.16
4 G1 13 0 12 0
0

0101000
+234 2 -275 2 *
Ve
1.0001000025e-07
99.523433 2.674164 5.058864899221
0 0

0101101
*
Ed
 1.00005e-07 1 1 0
1  64 0 -0.134164 0
2  127 13 0 -0.134164 0
2  128 21 0 -0.134164 0
0

0101000
+164 2 -232 2 *
Ve
1.0001000025e-07
99.531760124296 2.674164 5.133666
0 0

0101101
*
Ed
 1.00005e-07 1 1 0
1  65 0 3.02432729269173 3.03712387994382
2  129 13 0 3.02432729269173 3.03712387994382
2  130 31 0 3.02432729269173 3.03712387994382
0

0101000
+162 2 -164 2 *
Ed
 1.00005e-07 1 1 0
1  66 0 -0.134164 0
2  131 13 0 -0.134164 0
2  132 32 0 -0.134164 0
0

0101000
+162 2 -167 2 *
Wi

0101100
-166 0 +174 0 +272 0 -165 0 -231 0 -163 0 -161 0 +160 0 *
Fa
0  1e-07 13 0

0101000
+159 0 *
Ed
 1.0001000025e-07 1 1 0
1  67 0 0 10.16
2  133 11 0 0 10.16
2  134 12 0 0 10.16
0

0101000
+236 2 -277 2 *
Wi

0101100
+157 0 +276 0 -170 0 -235 0 *
Fa
0  1e-07 11 0

0101000
+156 0 *
Wi

0101100
+157 0 +274 0 -165 0 -233 0 *
Fa
0  1e-07 12 0

0101000
+154 0 *
Ed
 1e-07 1 1 0
1  68 0 0 10.16
3  135 136G1 17 0 0 10.16
0

0101000
+213 2 -263 2 *
Wi

0101100
-212 0 +152 0 +262 0 -152 0 *
Fa
0  1e-07 17 0

0101000
+151 0 *
Ve
1.0001000025e-07
186.264433 0.364237 -5.08
0 0

0101101
*
Ed
 1.0001000025e-07 1 1 0
1  69 0 0.160997 2.33676
2  137 25 0 0.160997 2.33676
2  138 33 0 0.160997 2.33676
0

0101000
+220 2 -149 2 *
Ve
1.0001000025e-07
99.523433 0.364237 -5.08
0 0

0101101
*
Ed
 1.0001000025e-07 1 1 0
1  70 0 0.160997 2.33676
2  139 25 0 0.160997 2.33676
2  140 24 0 0.160997 2.33676
0

0101000
+222 2 -147 2 *
Ed
 1.0001000025e-07 1 1 0
1  71 0 -0 86.741
2  141 25 0 -0 86.741
2  142 34 0 -0 86.741
0

0101000
+149 2 -147 2 *
Wi

0101100
-148 0 -219 0 +146 0 -145 0 *
Fa
0  1e-07 25 0

0101000
+144 0 *
Ve
1.0001000025e-07
99.523433 0.364237 -1.778
0 0

0101101
*
Ed
 1.0001000025e-07 1 1 0
1  72 0 0 3.302
2  143 24 0 0 3.302
2  144 34 0 0 3.302
0

0101000
+147 2 -142 2 *
Ve
1.0001000025e-07
99.523433 1.473224 -1.778
0 0

0101101
*
Ed
 1.0001000025e-07 1 1 0
1  73 0 0 1.108987
2  145 24 0 0 1.108987
2  146 35 0 0 1.108987
0

0101000
+140 2 -142 2 *
Ve
1.0001000025e-07
99.523433 1.473224 -3.92985
0 0

0101101
*
Ed
 1.0001000025e-07 1 1 0
1  74 0 0 2.15185
2  147 24 0 0 2.15185
2  148 36 0 0 2.15185
0

0101000
+138 2 -140 2 *
Ed
 1.0001000025e-07 1 1 0
1  75 0 0.160997 1.227773
2  149 24 0 0.160997 1.227773
2  150 23 0 0.160997 1.227773
0

0101000
+224 2 -138 2 *
Wi

0101100
-221 0 +146 0 +141 0 -139 0 -137 0 -136 0 *
Fa
0  1e-07 24 0

0101000
+135 0 *
Ve
1.0001000025e-07
186.264433 1.473224 -3.92985
0 0

0101101
*
Ed
 1.0001000025e-07 1 1 0
1  76 0 0.160997 1.227773
2  151 23 0 0.160997 1.227773
2  152 33 0 0.160997 1.227773
0

0101000
+226 2 -133 2 *
Ed
 1.0001000025e-07 1 1 0
1  77 0 -0 86.741
2  153 23 0 -0 86.741
2  154 36 0 -0 86.741
0

0101000
+133 2 -138 2 *
Wi

0101100
-132 0 -223 0 +136 0 -131 0 *
Fa
0  1e-07 23 0

0101000
+130 0 *
Ve
1.0001000025e-07
186.264433 1.473224 3.932132
0 0

0101101
*
Ed
 1.0001000025e-07 1 1 0
1  78 0 0 1.066776
2  155 22 0 0 1.066776
2  156 37 0 0 1.066776
0

0101000
+128 2 -228 2 *
Ve
1.0001000025e-07
99.523433 1.473224 3.932132
0 0

0101101
*
Ed
 1.0001000025e-07 1 1 0
1  79 0 -0 86.741
2  157 22 0 -0 86.741
2  158 38 0 -0 86.741
0

0101000
+128 2 -126 2 *
Ed
 1.0001000025e-07 1 1 0
1  80 0 0 1.066776
2  159 22 0 0 1.066776
2  160 21 0 0 1.066776
0

0101000
+126 2 -230 2 *
Wi

0101100
-127 0 +125 0 +124 0 -227 0 *
Fa
0  1e-07 22 0

0101000
+123 0 *
Ve
1.0001000025e-07
99.523433 1.473224 1.778
0 0

0101101
*
Ed
 1.0001000025e-07 1 1 0
1  81 0 0 2.154132
2  161 21 0 0 2.154132
2  162 38 0 0 2.154132
0

0101000
+121 2 -126 2 *
Ve
1.0001000025e-07
99.523433 0.364237 1.778
0 0

0101101
*
Ed
 1.0001000025e-07 1 1 0
1  82 0 0 1.108987
2  163 21 0 0 1.108987
2  164 39 0 0 1.108987
0

0101000
+121 2 -119 2 *
Ve
1.0001000025e-07
99.523433 0.364237 5.133666
0 0

0101101
*
Ed
 1.0001000025e-07 1 1 0
1  83 0 0 3.355666
2  165 21 0 0 3.355666
2  166 40 0 0 3.355666
0

0101000
+119 2 -117 2 *
Ve
1.0001000025e-07
99.523433 2.674164 5.133666
0 0

0101101
*
Ed
 1.0001000025e-07 1 1 0
1  84 0 0 2.309927
2  167 21 0 0 2.309927
2  168 32 0 0 2.309927
0

0101000
+117 2 -115 2 *
Ed
 1.0001000025e-07 1 1 0
1  85 0 1.126732899221 1.201534
2  169 21 0 1.126732899221 1.201534
2  170 31 0 1.126732899221 1.201534
0

0101000
+164 2 -115 2 *
Wi

0101100
-120 0 +118 0 +116 0 +114 0 -113 0 +163 0 -229 0 -124 0 *
Fa
0  1e-07 21 0

0101000
+112 0 *
Ve
1.0001000025e-07
185.959671 -35.56 -40.522522
0 0

0101101
*
Ed
 1.0001000025e-07 1 1 0
1  86 0 0 38.1
2  171 20 0 0 38.1
2  172 19 0 0 38.1
0

0101000
+250 2 -110 2 *
Ve
1.0001000025e-07
-25.006239 -35.56 -40.522522
0 0

0101101
*
Ed
 1.0001000025e-07 1 1 0
1  87 0 0 210.96591
2  173 20 0 0 210.96591
2  174 41 0 0 210.96591
0

0101000
+110 2 -108 2 *
Ve
1.0001000025e-07
-25.006239 2.54 -40.522522
0 0

0101101
*
Ed
 1.0001000025e-07 1 1 0
1  88 0 0 38.1
2  175 20 0 0 38.1
2  176 42 0 0 38.1
0

0101000
+106 2 -108 2 *
Ed
 1.0001000025e-07 1 1 0
1  89 0 210.887648 210.96591
2  177 20 0 210.887648 210.96591
2  178 27 0 210.887648 210.96591
0

0101000
+248 2 -106 2 *
Wi

0101100
+109 0 +107 0 -105 0 -104 0 -247 0 *
Fa
0  1e-07 20 0

0101000
+103 0 *
Ve
1.0001000025e-07
185.959671 -35.56 -45.825238
0 0

0101101
*
Ed
 1.0001000025e-07 1 1 0
1  90 0 0 38.1
2  179 19 0 0 38.1
2  180 18 0 0 38.1
0

0101000
+252 2 -101 2 *
Ed
 1.0001000025e-07 1 1 0
1  91 0 0 5.302716
2  181 19 0 0 5.302716
2  182 41 0 0 5.302716
0

0101000
+101 2 -110 2 *
Wi

0101100
+100 0 +99 0 -109 0 -249 0 *
Fa
0  1e-07 19 0

0101000
+98 0 *
Ve
1.0001000025e-07
-25.006239 2.54 -45.825238
0 0

0101101
*
Ve
1.0001000025e-07
-25.006239 -35.56 -45.825238
0 0

0101101
*
Ed
 1.0001000025e-07 1 1 0
1  92 0 0 38.1
2  183 18 0 0 38.1
2  184 42 0 0 38.1
0

0101000
+96 2 -95 2 *
Ed
 1.0001000025e-07 1 1 0
1  93 0 0 210.96591
2  185 18 0 0 210.96591
2  186 41 0 0 210.96591
0

0101000
+95 2 -101 2 *
Ed
 1.0001000025e-07 1 1 0
1  94 0 0 0.0782620000000023
2  187 18 0 0 0.0782620000000023
2  188 27 0 0 0.0782620000000023
0

0101000
+96 2 -254 2 *
Wi

0101100
+94 0 +93 0 -100 0 -251 0 -92 0 *
Fa
0  1e-07 18 0

0101000
+91 0 *
Ve
1e-07
55.659043605311 1.539999 6.661344809089e-16
0 0

0101101
*
Ed
 1e-07 1 1 0
1  95 0 0 6.28318530717959
2  189 26 0 0 6.28318530717959
2  190 43 0 0 6.28318530717959
4 G1 26 0 43 0
0

0101000
+89 2 -89 2 *
Ed
 1e-07 1 1 0
1  96 0 1.5707963267949 3.14159265358979
3  191 192G1 26 0 1.5707963267949 3.14159265358979
0

0101000
+216 2 -89 2 *
Wi

0101100
+88 0 -87 0 -215 0 +87 0 *
Fa
0  1e-07 26 0

0101000
+86 0 *
Ed
 1.0001000025e-07 1 1 0
1  97 0 -0 5.302716
2  193 27 0 -0 5.302716
2  194 42 0 -0 5.302716
0

0101000
+106 2 -96 2 *
Wi

0101100
+84 0 +92 0 +208 0 +104 0 *
Fa
0  1e-07 27 0

0101000
+83 0 *
Ed
 1.0001000025e-07 1 1 0
1  98 0 -53.72429043534 33.008382440363
2  195 28 0 -53.72429043534 33.008382440363
2  196 32 0 -53.72429043534 33.008382440363
0

0101000
+201 2 -167 2 *
Wi

0101100
+200 0 +81 0 -166 0 +173 0 -181 0 *
Fa
0  1e-07 28 0

0101000
+80 0 *
Ed
 1.0001000025e-07 1 1 0
1  99 0 10.436825684211 11.586975684211
2  197 29 0 10.436825684211 11.586975684211
2  198 33 0 10.436825684211 11.586975684211
4 G1 29 0 33 0
0

0101000
+226 2 -220 2 *
Wi

0101100
+195 0 +197 0 -78 0 -194 0 *
Fa
0  1e-07 29 0

0101000
+77 0 *
Ed
 1.0001000025e-07 1 1 0
1  100 0 1.373309684211 2.574843684211
2  199 30 0 1.373309684211 2.574843684211
2  200 37 0 1.373309684211 2.574843684211
4 G1 30 0 37 0
0

0101000
+201 2 -228 2 *
Wi

0101100
-192 0 -75 0 +189 0 -190 0 *
Fa
0  1e-07 30 0

0101000
+74 0 *
Ed
 1.0001000025e-07 1 1 0
1  101 0 86.732672875704 86.741
2  201 31 0 86.732672875704 86.741
2  202 32 0 86.732672875704 86.741
0

0101000
+162 2 -115 2 *
Wi

0101100
+161 0 +113 0 -72 0 *
Fa
0  1e-07 31 0

0101000
+71 0 *
Ve
1.0001000025e-07
186.264433 0.364237 5.133666
0 0

0101101
*
Ed
 1.0001000025e-07 1 1 0
1  102 0 0 2.175763
2  203 32 0 0 2.175763
2  204 37 0 0 2.175763
0

0101000
+69 2 -201 2 *
Ed
 1.0001000025e-07 1 1 0
1  103 0 -0 86.741
2  205 32 0 -0 86.741
2  206 40 0 -0 86.741
0

0101000
+69 2 -117 2 *
Wi

0101100
-68 0 +67 0 +114 0 -72 0 +160 0 -81 0 *
Fa
0  1e-07 32 0

0101000
+66 0 *
Ve
1.0001000025e-07
186.264433 0.364237 -1.778
0 0

0101101
*
Ed
 1.0001000025e-07 1 1 0
1  104 0 0 3.302
2  207 33 0 0 3.302
2  208 34 0 0 3.302
0

0101000
+149 2 -64 2 *
Ve
1.0001000025e-07
186.264433 1.473224 -1.778
0 0

0101101
*
Ed
 1.0001000025e-07 1 1 0
1  105 0 0 1.108987
2  209 33 0 0 1.108987
2  210 35 0 0 1.108987
0

0101000
+62 2 -64 2 *
Ed
 1.0001000025e-07 1 1 0
1  106 0 0 2.15185
2  211 33 0 0 2.15185
2  212 36 0 0 2.15185
0

0101000
+133 2 -62 2 *
Wi

0101100
+78 0 +148 0 +63 0 -61 0 -60 0 -132 0 *
Fa
0  1e-07 33 0

0101000
+59 0 *
Ed
 1.0001000025e-07 1 1 0
1  107 0 -0 86.741
2  213 34 0 -0 86.741
2  214 35 0 -0 86.741
0

0101000
+64 2 -142 2 *
Wi

0101100
+145 0 +141 0 -57 0 -63 0 *
Fa
0  1e-07 34 0

0101000
+56 0 *
Ed
 1.0001000025e-07 1 1 0
1  108 0 -0 86.741
2  215 35 0 -0 86.741
2  216 36 0 -0 86.741
0

0101000
+62 2 -140 2 *
Wi

0101100
+54 0 +139 0 -57 0 -61 0 *
Fa
0  1e-07 35 0

0101000
+53 0 *
Wi

0101100
+131 0 +137 0 -54 0 -60 0 *
Fa
0  1e-07 36 0

0101000
+51 0 *
Ve
1.0001000025e-07
186.264433 1.473224 1.778
0 0

0101101
*
Ed
 1.0001000025e-07 1 1 0
1  109 0 0 2.154132
2  217 37 0 0 2.154132
2  218 38 0 0 2.154132
0

0101000
+49 2 -128 2 *
Ve
1.0001000025e-07
186.264433 0.364237 1.778
0 0

0101101
*
Ed
 1.0001000025e-07 1 1 0
1  110 0 0 1.108987
2  219 37 0 0 1.108987
2  220 39 0 0 1.108987
0

0101000
+49 2 -47 2 *
Ed
 1.0001000025e-07 1 1 0
1  111 0 0 3.355666
2  221 37 0 0 3.355666
2  222 40 0 0 3.355666
0

0101000
+47 2 -69 2 *
Wi

0101100
-48 0 +46 0 +45 0 +68 0 +75 0 -127 0 *
Fa
0  1e-07 37 0

0101000
+44 0 *
Ed
 1.0001000025e-07 1 1 0
1  112 0 -0 86.741
2  223 38 0 -0 86.741
2  224 39 0 -0 86.741
0

0101000
+49 2 -121 2 *
Wi

0101100
+42 0 +120 0 -125 0 -48 0 *
Fa
0  1e-07 38 0

0101000
+41 0 *
Ed
 1.0001000025e-07 1 1 0
1  113 0 -0 86.741
2  225 39 0 -0 86.741
2  226 40 0 -0 86.741
0

0101000
+47 2 -119 2 *
Wi

0101100
+42 0 +118 0 -39 0 -46 0 *
Fa
0  1e-07 39 0

0101000
+38 0 *
Wi

0101100
+39 0 +116 0 -67 0 -45 0 *
Fa
0  1e-07 40 0

0101000
+36 0 *
Ed
 1.0001000025e-07 1 1 0
1  114 0 -0 5.302716
2  227 41 0 -0 5.302716
2  228 42 0 -0 5.302716
0

0101000
+108 2 -95 2 *
Wi

0101100
+93 0 +99 0 +107 0 +34 0 *
Fa
0  1e-07 41 0

0101000
+33 0 *
Wi

0101100
+105 0 +34 0 -94 0 -84 0 *
Fa
0  1e-07 42 0

0101000
+31 0 *
Ve
1e-07
55.659043605311 -4.841999 5.331045093662e-15
0 0

0101101
*
Ed
 1e-07 1 1 0
1  115 0 0 6.28318530717959
2  229 43 0 0 6.28318530717959
2  230 44 0 0 6.28318530717959
4 G1 43 0 44 0
0

0101000
+29 2 -29 2 *
Ed
 1e-07 1 1 0
1  116 0 1.000001 7.381999
3  231 232G1 43 0 1.000001 7.381999
0

0101000
+89 2 -29 2 *
Wi

0101100
-28 0 -27 0 +88 0 +27 0 *
Fa
0  1e-07 43 0

0101000
+26 0 *
Ve
1.00005e-07
56.659044605311 -5.842 5.993871498181e-15
0 0

0101101
*
Ed
 1.00005e-07 1 1 0
1  117 0 0 6.28318530717959
2  233 44 0 0 6.28318530717959
2  234 45 0 0 6.28318530717959
4 G1 44 0 45 0
0

0101000
+24 2 -24 2 *
Ed
 1e-07 1 1 0
1  118 0 3.14159265358979 4.71238898038469
3  235 236G1 44 0 3.14159265358979 4.71238898038469
0

0101000
+29 2 -24 2 *
Wi

0101100
+23 0 -22 0 -28 0 +22 0 *
Fa
0  1e-07 44 0

0101000
+21 0 *
Wi

0101100
-23 0 *
Ve
1.00005e-07
56.960136460422 -5.842 6.202470401619e-15
0 0

0101101
*
Ed
 1.00005e-07 1 1 0
1  119 0 0 6.28318530717959
2  237 45 0 0 6.28318530717959
2  238 46 0 0 6.28318530717959
0

0101000
+18 2 -18 2 *
Wi

0101100
+17 0 *
Fa
0  1e-07 45 0

0101000
+19 0 +16 0 *
Ve
1e-07
56.960136460422 -6.111999 6.300957091826e-15
0 0

0101101
*
Ed
 1e-07 1 1 0
1  120 0 0 0.269999
3  239 240G1 46 0 0 0.269999
0

0101000
+18 2 -14 2 *
Ed
 1e-07 1 1 0
1  121 0 0 6.28318530717959
2  241 46 0 0 6.28318530717959
2  242 47 0 0 6.28318530717959
4 G1 46 0 47 0
0

0101000
+14 2 -14 2 *
Wi

0101100
+17 0 +13 0 -12 0 -13 0 *
Fa
0  1e-07 46 0

0101000
+11 0 *
Ve
1.00005e-07
55.960135460422 -7.112 7.157591494853e-15
0 0

0101101
*
Ed
 1e-07 1 1 0
1  122 0 0 1.5707963267949
3  243 244G1 47 0 0 1.5707963267949
0

0101000
+14 2 -9 2 *
Ed
 1.00005e-07 1 1 0
1  123 0 0 6.28318530717959
2  245 47 0 0 6.28318530717959
2  246 48 0 0 6.28318530717959
4 G1 47 0 48 0
0

0101000
+9 2 -9 2 *
Wi

0101100
-8 0 +12 0 +8 0 -7 0 *
Fa
0  1e-07 47 0

0101000
+6 0 *
Wi

0101100
+7 0 *
Fa
0  1e-07 48 0

0101000
+4 0 *
Sh

0101100
+295 0 -288 0 +260 0 +255 0 -210 0 -206 0 +203 0 -187 0 -184 0 +179 0 
+176 0 -171 0 -168 0 +158 0 +155 0 -153 0 -150 0 -143 0 +134 0 +129 0 
+122 0 +111 0 -102 0 -97 0 -90 0 -85 0 -82 0 -79 0 -76 0 -73 0 
+70 0 -65 0 -58 0 -55 0 +52 0 +50 0 -43 0 +40 0 -37 0 -35 0 
+32 0 -30 0 +25 0 -20 0 -15 0 +10 0 +5 0 +3 0 *
So

1100000
+2 0 *

+1 1 